<svg width="259" height="59" viewBox="0 0 259 59" fill="none" xmlns="http://www.w3.org/2000/svg">
<path d="M75.12 43.64L75.6 43.6V44H63.48V43.6L63.96 43.64C65.36 43.64 66.52 42.48 66.52 41.12V17.68L62.76 17.84C60.44 17.92 59.12 18.64 58.96 20.36C58.84 22 59.96 23.28 62.04 23.16V23.4C59.68 24.44 57.12 22.84 57.24 20.24C57.32 18.24 58.76 16.44 62.88 16.16C65.48 16 71.84 15.92 75.6 15.2L75.68 15.6C73.32 16 72.56 17.2 72.52 19.36V41.12C72.56 42.48 73.72 43.64 75.12 43.64ZM94.9213 29.68C97.3613 31.08 98.6813 33.32 98.5213 36.28C98.2813 41.52 94.3613 44.56 87.9613 44.56C84.3613 44.56 81.0013 43.64 79.5613 42.16C78.8813 40.48 79.4413 37.12 80.4813 35.36H80.8413C80.5213 39.52 83.6013 42.96 88.4013 42.88C91.8813 42.84 93.9213 40.92 93.9213 38.4C93.9213 36.76 92.9613 35.48 90.7213 34.28L83.7613 29.64C80.8813 28.04 79.6413 25.36 79.9212 22.48C80.2813 18.32 83.2813 15.44 88.3613 15.44C89.6413 15.44 91.9613 15.64 93.8013 15.88H96.3213L96.2813 16.36L96.2413 16.68L95.7613 21.76H95.4013C95.4013 18.96 93.1213 17.16 89.7613 17.16C86.6013 17.16 84.6013 18.84 84.5213 21C84.4013 22.56 85.6013 23.72 87.3213 24.72L94.9213 29.68ZM121.805 15.96C123.525 15.96 125.805 15.56 126.565 15.24V22.24L126.165 22.2V21.76C126.165 19.32 124.605 17.72 122.165 17.68H116.765V41.12C116.805 42.52 117.965 43.64 119.325 43.64L119.845 43.6V44H107.685V43.6L108.205 43.64C109.565 43.64 110.725 42.52 110.765 41.16V17.68H105.405C102.925 17.72 101.365 19.32 101.405 21.76V22.2L100.965 22.24V15.24C101.725 15.56 104.005 15.96 105.725 15.96H121.805ZM140.925 43.6V44H128.765V43.6L129.285 43.64C130.685 43.64 131.845 42.48 131.845 41.12V18.92C131.805 17.52 130.685 16.4 129.285 16.4H128.765V16H131.965H137.725H140.925V16.4H140.405C139.005 16.4 137.885 17.52 137.845 18.92V41.12C137.885 42.48 139.005 43.64 140.405 43.64L140.925 43.6ZM203.896 36.2C203.936 41.36 199.416 44 192.656 44H179.976L180.016 43.6C180.096 43.6 180.416 43.6 180.496 43.64C181.896 43.64 183.016 42.52 183.056 41.12V18.92C183.016 17.52 181.896 16.4 180.496 16.4C180.416 16.4 180.096 16.4 180.016 16.4L179.976 16H183.176H191.576C197.376 16 201.736 17.96 201.736 22.88C201.736 26.52 199.336 28.48 196.816 28.8C200.856 29.16 203.936 31.96 203.896 36.2ZM190.936 42.2C194.496 42.2 197.056 40.24 197.016 35.72C197.056 31.04 193.976 29.2 190.416 29.24V28.84C192.936 28.84 195.336 27.4 195.336 23.36C195.336 19.36 193.296 17.72 190.216 17.76H189.056V42.2H190.936ZM234.73 43.6H235.05V44H222.29V43.64H222.65C223.69 43.64 224.81 42.72 224.17 41.12H224.21L222.25 36.16H212.85L210.77 41.12H210.81C210.13 42.72 211.29 43.64 212.33 43.64H212.69V44.04H204.09V43.64H204.45C205.61 43.64 206.97 42.96 207.85 41.36L217.09 20.44C217.37 19.84 218.97 16.4 219.05 15.2H219.41L231.29 41.32C232.17 42.92 233.53 43.6 234.73 43.6ZM213.57 34.48H221.57L217.65 24.68L213.57 34.48ZM257.722 35.84H258.122L256.282 44H235.562V43.6L236.082 43.64C237.482 43.64 238.642 42.48 238.642 41.12V18.92C238.602 17.56 237.482 16.4 236.082 16.4H235.562V16H238.762H244.522H247.722V16.4H247.202C245.802 16.4 244.682 17.56 244.642 18.92V42.32H249.882C253.882 42.32 256.482 39.84 257.722 35.84Z" fill="white"/>
<path d="M196.634 46.88L196.834 47.04C196.474 53.28 187.514 58.52 175.594 52.52C169.714 49.48 165.034 45.04 159.994 44.56C150.434 44.4 144.314 38.88 144.314 30.04C144.314 21.04 150.634 15.44 160.474 15.44C170.314 15.44 176.594 21.04 176.594 30.04C176.594 37.2 172.594 42.2 165.994 43.92C169.634 44.68 172.874 45.92 178.074 47.96C185.314 50.72 192.194 50.52 196.634 46.88ZM150.914 30.04C150.914 37.96 154.594 42.88 160.474 42.88C166.314 42.88 170.034 37.96 170.034 30.04C170.034 22.08 166.314 17.16 160.474 17.16C154.594 17.16 150.914 22.08 150.914 30.04Z" fill="#DB9E30"/>
<path d="M5.72915 12.4999C6.28168 12.4999 6.81158 12.2804 7.20229 11.8897C7.59299 11.499 7.81248 10.9691 7.81248 10.4166C7.81248 9.86405 7.59299 9.33415 7.20229 8.94345C6.81158 8.55275 6.28168 8.33325 5.72915 8.33325C5.17661 8.33325 4.64671 8.55275 4.25601 8.94345C3.86531 9.33415 3.64581 9.86405 3.64581 10.4166C3.64581 10.9691 3.86531 11.499 4.25601 11.8897C4.64671 12.2804 5.17661 12.4999 5.72915 12.4999ZM44.2708 12.4999C44.8233 12.4999 45.3533 12.2804 45.744 11.8897C46.1347 11.499 46.3541 10.9691 46.3541 10.4166C46.3541 9.86405 46.1347 9.33415 45.744 8.94345C45.3533 8.55275 44.8233 8.33325 44.2708 8.33325C43.7183 8.33325 43.1884 8.55275 42.7977 8.94345C42.407 9.33415 42.1875 9.86405 42.1875 10.4166C42.1875 10.9691 42.407 11.499 42.7977 11.8897C43.1884 12.2804 43.7183 12.4999 44.2708 12.4999ZM5.72915 14.5833C6.14355 14.5833 6.54098 14.7479 6.834 15.0409C7.12703 15.3339 7.29165 15.7314 7.29165 16.1458V27.0833H12.4958C11.8085 25.433 11.4559 23.6626 11.4583 21.8749C11.4583 19.7416 12.4208 17.8333 13.6625 16.2499C14.9104 14.6562 16.5333 13.2687 18.0937 12.1395C20.0189 10.7576 22.0654 9.55339 24.2083 8.54159L24.3187 8.4895L24.35 8.47492L24.3583 8.47075H24.3625C24.5637 8.38077 24.7816 8.33425 25.0021 8.33425C25.2225 8.33425 25.4404 8.38077 25.6416 8.47075H25.6458L25.6541 8.47492L25.6854 8.4895L25.7958 8.54159C26.4101 8.83247 27.0165 9.13952 27.6146 9.46242C28.7791 10.0895 30.3396 11.0041 31.9062 12.1395C33.4687 13.2687 35.0937 14.6562 36.3396 16.2478C37.5812 17.8312 38.5437 19.7416 38.5437 21.8749C38.5462 23.6626 38.1935 25.433 37.5062 27.0833H42.7083V16.1458C42.7083 15.7314 42.8729 15.3339 43.166 15.0409C43.459 14.7479 43.8564 14.5833 44.2708 14.5833C44.6852 14.5833 45.0826 14.7479 45.3757 15.0409C45.6687 15.3339 45.8333 15.7314 45.8333 16.1458V43.2291C45.8333 44.6666 44.6666 45.8333 43.2291 45.8333H31.7708C30.3333 45.8333 29.1666 44.6666 29.1666 43.2291V39.5833C29.1666 38.4782 28.7277 37.4184 27.9463 36.637C27.1649 35.8556 26.105 35.4166 25 35.4166C23.8949 35.4166 22.8351 35.8556 22.0537 36.637C21.2723 37.4184 20.8333 38.4782 20.8333 39.5833V43.2291C20.8333 44.6666 19.6666 45.8333 18.2291 45.8333H6.77081C5.33331 45.8333 4.16665 44.6666 4.16665 43.2291V16.1458C4.16665 15.7314 4.33127 15.3339 4.62429 15.0409C4.91732 14.7479 5.31475 14.5833 5.72915 14.5833Z" fill="#DB9E30"/>
</svg>
