<svg width="18" height="18" viewBox="0 0 18 18" fill="none" xmlns="http://www.w3.org/2000/svg">
<path d="M8.99999 0C5.3335 0 2.35071 2.98279 2.35071 6.64928C2.35071 7.85632 2.89204 9.1545 2.91472 9.20926C3.08956 9.62425 3.43454 10.2688 3.6833 10.6467L8.24236 17.5545C8.42893 17.8377 8.70508 18 8.99999 18C9.29491 18 9.57105 17.8377 9.75762 17.5549L14.3171 10.6467C14.5662 10.2688 14.9108 9.62425 15.0856 9.20926C15.1083 9.15489 15.6493 7.85671 15.6493 6.64928C15.6493 2.98279 12.6665 0 8.99999 0ZM14.3644 8.90574C14.2083 9.27771 13.8872 9.87731 13.6639 10.216L9.10442 17.1243C9.01446 17.2608 8.98591 17.2608 8.89595 17.1243L4.3365 10.216C4.11316 9.87731 3.79204 9.27731 3.63598 8.90534C3.62933 8.88931 3.13298 7.69439 3.13298 6.64928C3.13298 3.41421 5.76492 0.782269 8.99999 0.782269C12.2351 0.782269 14.867 3.41421 14.867 6.64928C14.867 7.69596 14.3695 8.894 14.3644 8.90574Z" fill="black"/>
<path d="M8.99994 3.12939C7.05875 3.12939 5.47974 4.70879 5.47974 6.6496C5.47974 8.59041 7.05875 10.1698 8.99994 10.1698C10.9411 10.1698 12.5202 8.59041 12.5202 6.6496C12.5202 4.70879 10.9411 3.12939 8.99994 3.12939ZM8.99994 9.38754C7.49056 9.38754 6.262 8.15938 6.262 6.6496C6.262 5.13982 7.49056 3.91166 8.99994 3.91166C10.5093 3.91166 11.7379 5.13982 11.7379 6.6496C11.7379 8.15938 10.5093 9.38754 8.99994 9.38754Z" fill="black"/>
</svg>
